<svg xmlns="http://www.w3.org/2000/svg" xmlns:xlink="http://www.w3.org/1999/xlink" id="Layer_1" x="0px" y="0px" width="500px" height="500px" viewBox="0 0 500 500" xml:space="preserve"><g>	<g>		<path fill="#548C31" d="M190.53,295.211c0.156-0.004-25.657-83.42,42.719-148.782c0,0-37.126,81.517-6.519,146.553   c216.901-23.186,213.959-212.878,213.907-215.52c0-0.694,0.046-1.189-0.325-1.533C399.633,40.316,346.364,18.73,288.05,18.73   c-127.729,0-231.271,103.542-231.271,231.271c0,127.725,103.542,231.27,231.271,231.27c59.713,0,114.137-22.637,155.171-59.789   c-22.204,9.36-46.604,14.541-72.215,14.541C283.862,436.022,210.728,376.094,190.53,295.211z"></path>	</g></g></svg>